# xmcd
#
# Track frame offsets:
#	150
#	13304
#	28211
#	39693
#	51270
#	64553
#	75599
#	86425
#	105532
#	119997
#	134436
#	146569
#
# Disc length: 2147 seconds
#
# Revision: 1
# Processed by: cddbd v1.4PL0 Copyright (c) Steve Scherf et al.
# Submitted via: dBpowerAMP V4.0
#
DISCID=ab08610c
DTITLE=Kenny Rogers - The Great Kenny Rogers - Disc 1
DYEAR=1900
DGENRE=Country
TTITLE0=Ruby, Don't Take Your Love To Town
TTITLE1=For The Good Times
TTITLE2=A Poem For My Little Lady
TTITLE3=Always Leaving Always Gone
TTITLE4=Shine On Ruby Mountain
TTITLE5=Homemade Lies
TTITLE6=Ticket To Nowhere
TTITLE7=Lay It Down
TTITLE8=Sunshine
TTITLE9=Loser
TTITLE10=Love Woman
TTITLE11=Heed The Call
EXTD=3 CD Set
EXTT0=
EXTT1=
EXTT2=
EXTT3=
EXTT4=
EXTT5=
EXTT6=
EXTT7=
EXTT8=
EXTT9=
EXTT10=
EXTT11=
PLAYORDER=
